<svg width="55" height="55" viewBox="0 0 55 55" fill="none" xmlns="http://www.w3.org/2000/svg">
<circle cx="27.5" cy="27.5" r="27.5" fill="#007CED"/>
<path d="M30.1069 30.0107C29.6854 28.7233 29.241 27.5384 28.7739 26.4561C28.3068 25.3623 27.8454 24.3825 27.3896 23.5166C26.9453 22.6393 26.5181 21.876 26.1079 21.2266C25.7091 20.5658 25.3674 20.0246 25.0825 19.603C24.0229 21.4032 23.0716 23.1634 22.2285 24.8838C21.3968 26.5928 20.6562 28.3018 20.0068 30.0107C20.9183 30.1133 21.7956 30.1987 22.6387 30.2671C23.4818 30.3241 24.3192 30.3525 25.1509 30.3525C25.9712 30.3525 26.7858 30.3241 27.5947 30.2671C28.415 30.1987 29.2524 30.1133 30.1069 30.0107ZM41.7622 39.3931C41.7394 39.3931 41.7166 39.3874 41.6938 39.376C41.6711 39.376 41.6483 39.3646 41.6255 39.3418C40.5887 39.1823 39.5633 39.0684 38.5493 39C37.5467 38.9316 36.5441 38.8975 35.5415 38.8975C34.5503 38.8975 33.5705 38.9316 32.6021 39C31.645 39.0684 30.688 39.1823 29.731 39.3418C29.7082 39.3646 29.6854 39.376 29.6626 39.376C29.6398 39.3874 29.617 39.3931 29.5942 39.3931C29.3436 39.3931 29.1271 39.2962 28.9448 39.1025C28.7739 38.9089 28.6885 38.6981 28.6885 38.4702C28.6885 38.2651 28.7568 38.0771 28.8936 37.9062C29.0417 37.7354 29.2297 37.6328 29.4575 37.5986C29.9132 37.5075 30.3747 37.4391 30.8418 37.3936C31.3089 37.3366 31.7874 37.2796 32.2773 37.2227C32.2204 37.0062 32.152 36.7384 32.0723 36.4194C31.9925 36.089 31.8843 35.7017 31.7476 35.2573C31.6222 34.813 31.4684 34.3003 31.2861 33.7192C31.1152 33.1268 30.9102 32.4603 30.6709 31.7197C29.7025 31.8564 28.7682 31.9647 27.8682 32.0444C26.9681 32.1128 26.0623 32.147 25.1509 32.147C24.228 32.147 23.2938 32.1128 22.3481 32.0444C21.4025 31.9647 20.4113 31.8564 19.3745 31.7197C18.7707 33.5199 18.2808 35.3029 17.9048 37.0688C18.6112 37.0916 19.3175 37.1486 20.0239 37.2397C20.7417 37.3195 21.4709 37.4391 22.2114 37.5986C22.4165 37.6328 22.5817 37.7354 22.707 37.9062C22.8438 38.0771 22.9121 38.2651 22.9121 38.4702C22.9121 38.7323 22.8096 38.9487 22.6045 39.1196C22.4108 39.3019 22.2057 39.3931 21.9893 39.3931C21.9551 39.3931 21.9266 39.3817 21.9038 39.3589C21.881 39.3475 21.8525 39.3418 21.8184 39.3418C21.0664 39.1823 20.3258 39.0627 19.5967 38.9829C18.8789 38.9032 18.1611 38.8633 17.4434 38.8633C16.737 38.8633 16.042 38.9032 15.3584 38.9829C14.6748 39.0627 13.9798 39.1823 13.2734 39.3418C13.2393 39.3418 13.2108 39.3475 13.188 39.3589C13.1652 39.3817 13.1367 39.3931 13.1025 39.3931C12.8405 39.3931 12.624 39.3019 12.4531 39.1196C12.2822 38.9373 12.1968 38.7209 12.1968 38.4702C12.1968 38.2651 12.2594 38.0828 12.3848 37.9233C12.5101 37.7638 12.681 37.6556 12.8975 37.5986C13.4102 37.4733 13.9229 37.3765 14.4355 37.3081C14.9596 37.2397 15.4951 37.1828 16.042 37.1372C16.4294 35.2573 16.9364 33.3774 17.563 31.4976C18.1896 29.6177 18.9359 27.7207 19.8018 25.8066C20.679 23.8812 21.6816 21.9272 22.8096 19.9448C23.9375 17.9624 25.2078 15.923 26.6206 13.8267C26.7231 13.6899 26.8371 13.5931 26.9624 13.5361C27.0991 13.4792 27.2301 13.4507 27.3555 13.4507C27.4922 13.4507 27.6232 13.4792 27.7485 13.5361C27.8739 13.5817 27.9764 13.6558 28.0562 13.7583C30.4487 16.8117 32.4995 20.2752 34.2085 24.1489C35.9289 28.0112 37.3416 32.3577 38.4468 37.1885C39.6089 37.291 40.7653 37.4277 41.916 37.5986C42.1439 37.6328 42.3262 37.7354 42.4629 37.9062C42.611 38.0771 42.6851 38.2651 42.6851 38.4702C42.6851 38.7209 42.5825 38.9373 42.3774 39.1196C42.1838 39.3019 41.9787 39.3931 41.7622 39.3931Z" fill="white"/>
</svg>
