<svg width="55" height="55" viewBox="0 0 55 55" fill="none" xmlns="http://www.w3.org/2000/svg">
<circle cx="27.5" cy="27.5" r="27.5" fill="#007CED"/>
<path d="M20.5057 22C20.5824 21.1562 20.3778 20.4957 19.892 20.0185C19.4063 19.5327 18.5881 19.2898 17.4375 19.2898C16.7045 19.2898 16.0909 19.375 15.5966 19.5455C15.1108 19.7159 14.7315 19.9503 14.4588 20.2486C14.1946 20.5469 14.0284 20.892 13.9602 21.2841C13.8835 21.5909 13.8878 21.8722 13.973 22.1278C14.0668 22.375 14.2415 22.6009 14.4972 22.8054C14.7614 23.0099 15.1065 23.1932 15.5327 23.3551C15.9673 23.517 16.483 23.6619 17.0795 23.7898L19.125 24.25C20.5227 24.5568 21.6946 24.9616 22.6406 25.4645C23.5952 25.9588 24.3452 26.5469 24.8906 27.2287C25.4361 27.9105 25.794 28.6733 25.9645 29.517C26.1435 30.3608 26.1477 31.2812 25.9773 32.2784C25.6875 34 25.0185 35.4574 23.9702 36.6506C22.9219 37.8438 21.554 38.7514 19.8665 39.3736C18.179 39.9957 16.2273 40.3068 14.0114 40.3068C11.7443 40.3068 9.81818 39.9702 8.23295 39.2969C6.65625 38.6151 5.5142 37.5753 4.80682 36.1776C4.10795 34.7713 3.9375 32.9773 4.29545 30.7955H11.0455C10.9432 31.5966 11.0284 32.2699 11.3011 32.8153C11.5739 33.3608 12.0128 33.7741 12.6179 34.0554C13.223 34.3366 13.9773 34.4773 14.8807 34.4773C15.6477 34.4773 16.304 34.3835 16.8494 34.196C17.3949 34.0085 17.8253 33.7486 18.1406 33.4162C18.456 33.0838 18.6477 32.7045 18.7159 32.2784C18.7841 31.8864 18.7159 31.5369 18.5114 31.2301C18.3068 30.9233 17.9361 30.6463 17.3991 30.3991C16.8622 30.152 16.125 29.9261 15.1875 29.7216L12.6818 29.1591C10.4574 28.6477 8.77841 27.804 7.64489 26.6278C6.51136 25.4517 6.1108 23.8409 6.44318 21.7955C6.71591 20.125 7.40199 18.6676 8.50142 17.4233C9.60938 16.1705 11.0156 15.1989 12.7202 14.5085C14.4332 13.8097 16.3295 13.4602 18.4091 13.4602C20.5227 13.4602 22.2912 13.8139 23.7145 14.5213C25.1463 15.2287 26.1733 16.2216 26.7955 17.5C27.4261 18.7784 27.5966 20.2784 27.3068 22H20.5057ZM36.4538 28.9545L34.6129 40H27.5561L31.9027 13.8182H38.7038L37.0163 24.0966H37.2209C37.8601 22.8437 38.755 21.8679 39.9055 21.169C41.0561 20.4616 42.3601 20.108 43.8175 20.108C45.1982 20.108 46.3487 20.4233 47.2692 21.054C48.1896 21.6847 48.8416 22.554 49.2251 23.6619C49.6087 24.7699 49.6811 26.0398 49.4425 27.4716L47.3459 40H40.2891L42.13 28.9545C42.2834 27.983 42.1598 27.2202 41.7592 26.6662C41.3672 26.1122 40.7237 25.8352 39.8288 25.8352C39.2493 25.8352 38.7209 25.9631 38.2436 26.2188C37.7749 26.4659 37.3828 26.8239 37.0675 27.2926C36.7607 27.7528 36.5561 28.3068 36.4538 28.9545Z" fill="white"/>
</svg>
